<svg id="Layer_1" data-name="Layer 1" xmlns="http://www.w3.org/2000/svg" width="142.4" height="59.53" viewBox="0 0 142.4 59.53"><defs><style>.cls-1{fill:#fff;}</style></defs><title>clear-view-escapes</title><path class="cls-1" d="M19.5,27.52v4.75H5.93v5.51H18.38v4.39H5.93v6.3H19.78v4.75H0.28V27.52H19.5Z" transform="translate(-0.28 -0.19)"/><path class="cls-1" d="M27.36,48.59a3,3,0,0,0,.88,1,3.78,3.78,0,0,0,1.24.56,5.84,5.84,0,0,0,1.46.18,5.46,5.46,0,0,0,1.13-.13,3.86,3.86,0,0,0,1.08-.4A2.47,2.47,0,0,0,34,49.05a1.89,1.89,0,0,0,.32-1.13,1.91,1.91,0,0,0-1.53-1.73A30.59,30.59,0,0,0,28.49,45q-1.12-.25-2.18-0.59a7.38,7.38,0,0,1-1.89-.9,4.35,4.35,0,0,1-1.33-1.4,4,4,0,0,1-.5-2.07,5.6,5.6,0,0,1,.7-3,5.16,5.16,0,0,1,1.85-1.82,8.13,8.13,0,0,1,2.59-.94,15.92,15.92,0,0,1,3-.27,14.79,14.79,0,0,1,2.93.29,7.77,7.77,0,0,1,2.54,1A5.83,5.83,0,0,1,38,37.18,6.11,6.11,0,0,1,38.89,40H34a2.24,2.24,0,0,0-1.12-2,5.1,5.1,0,0,0-2.37-.52,8.77,8.77,0,0,0-.94.05,3.15,3.15,0,0,0-.92.23,1.91,1.91,0,0,0-.7.52,1.38,1.38,0,0,0-.29.92,1.4,1.4,0,0,0,.5,1.12,3.88,3.88,0,0,0,1.31.7,16.38,16.38,0,0,0,1.85.49L33.5,42a21.57,21.57,0,0,1,2.18.61,7.2,7.2,0,0,1,1.89,1,4.63,4.63,0,0,1,1.33,1.48,4.34,4.34,0,0,1,.5,2.18,5.65,5.65,0,0,1-2.66,5.07A7.9,7.9,0,0,1,34,53.37a15.9,15.9,0,0,1-3.11.31,15.36,15.36,0,0,1-3.17-.32A8.35,8.35,0,0,1,25,52.27a6.17,6.17,0,0,1-2-2,6.25,6.25,0,0,1-.85-3.11H27A2.8,2.8,0,0,0,27.36,48.59Z" transform="translate(-0.28 -0.19)"/><path class="cls-1" d="M51.27,38a3.59,3.59,0,0,0-2.05.56,4.45,4.45,0,0,0-1.35,1.44,6.23,6.23,0,0,0-.74,1.94A10.54,10.54,0,0,0,46.92,44,10.11,10.11,0,0,0,47.13,46a6.32,6.32,0,0,0,.7,1.89,4,4,0,0,0,1.31,1.39,3.61,3.61,0,0,0,2,.54,3.75,3.75,0,0,0,2.83-1,4.86,4.86,0,0,0,1.24-2.75h4.93a8.43,8.43,0,0,1-2.88,5.65,9.29,9.29,0,0,1-6.08,1.94,10.16,10.16,0,0,1-3.83-.7,8.49,8.49,0,0,1-3-2,8.92,8.92,0,0,1-1.91-3,10.42,10.42,0,0,1-.68-3.83,12.4,12.4,0,0,1,.63-4A9,9,0,0,1,44.29,37a8.49,8.49,0,0,1,3-2.1,10.15,10.15,0,0,1,4-.76,11.63,11.63,0,0,1,3.19.43,8.49,8.49,0,0,1,2.73,1.31,6.79,6.79,0,0,1,2.83,5.31h-5A3.43,3.43,0,0,0,51.27,38Z" transform="translate(-0.28 -0.19)"/><path class="cls-1" d="M62.82,40.33a5.93,5.93,0,0,1,.9-3,6.13,6.13,0,0,1,2-1.91,8.83,8.83,0,0,1,2.75-1,15.71,15.71,0,0,1,3.08-.31,20.85,20.85,0,0,1,2.84.2,8.72,8.72,0,0,1,2.63.77A5.18,5.18,0,0,1,79,36.67a4.47,4.47,0,0,1,.76,2.72v9.68a19.49,19.49,0,0,0,.14,2.41,4.34,4.34,0,0,0,.5,1.73H75.21A6.77,6.77,0,0,1,75,52.33a7.44,7.44,0,0,1-.13-0.92A6.64,6.64,0,0,1,72,53.17a11.55,11.55,0,0,1-3.38.5,9.1,9.1,0,0,1-2.48-.32,5.68,5.68,0,0,1-2-1,4.69,4.69,0,0,1-1.35-1.73,5.84,5.84,0,0,1-.49-2.48,5.42,5.42,0,0,1,.56-2.61,4.66,4.66,0,0,1,1.44-1.64,6.44,6.44,0,0,1,2-.92,21.75,21.75,0,0,1,2.29-.49q1.15-.18,2.27-0.29a13.74,13.74,0,0,0,2-.32,3.43,3.43,0,0,0,1.37-.63A1.38,1.38,0,0,0,74.63,40a2.72,2.72,0,0,0-.27-1.31A2,2,0,0,0,73.64,38a2.86,2.86,0,0,0-1-.36,8.61,8.61,0,0,0-1.28-.09,3.88,3.88,0,0,0-2.37.65,2.89,2.89,0,0,0-1,2.16H62.82Zm11.8,3.78a2.28,2.28,0,0,1-.81.45,8.28,8.28,0,0,1-1,.27C72.4,44.9,72,45,71.61,45s-0.82.11-1.22,0.18a9.24,9.24,0,0,0-1.13.29,3.34,3.34,0,0,0-1,.49,2.3,2.3,0,0,0-.67.77,2.49,2.49,0,0,0-.25,1.19,2.4,2.4,0,0,0,.25,1.15,1.93,1.93,0,0,0,.68.74,2.9,2.9,0,0,0,1,.38,6.48,6.48,0,0,0,1.19.11,4.51,4.51,0,0,0,2.34-.5,3.36,3.36,0,0,0,1.22-1.21,3.87,3.87,0,0,0,.49-1.42A10.06,10.06,0,0,0,74.63,46V44.11Z" transform="translate(-0.28 -0.19)"/><path class="cls-1" d="M88.56,34.6V37h0.07A5.62,5.62,0,0,1,91,34.78a7.29,7.29,0,0,1,3.17-.68,8.07,8.07,0,0,1,3.78.83,7.82,7.82,0,0,1,2.63,2.2,9.31,9.31,0,0,1,1.55,3.19,14.19,14.19,0,0,1,.5,3.8,12.82,12.82,0,0,1-.5,3.6,9.18,9.18,0,0,1-1.53,3.06A7.58,7.58,0,0,1,98,52.89a7.69,7.69,0,0,1-3.58.79,7.23,7.23,0,0,1-3.18-.7,6,6,0,0,1-2.39-2.07H88.81v8.82H83.7V34.6h4.86ZM95.2,49.36A4.09,4.09,0,0,0,96.56,48a5.43,5.43,0,0,0,.74-1.89,11.19,11.19,0,0,0,.22-2.2,10.32,10.32,0,0,0-.23-2.2,5.86,5.86,0,0,0-.77-1.92,4.33,4.33,0,0,0-1.39-1.37A3.87,3.87,0,0,0,93.05,38a3.94,3.94,0,0,0-2.11.52,4.22,4.22,0,0,0-1.37,1.35,5.6,5.6,0,0,0-.74,1.91A11.3,11.3,0,0,0,88.63,44a10.31,10.31,0,0,0,.23,2.2A5.69,5.69,0,0,0,89.62,48,4.36,4.36,0,0,0,95.2,49.36Z" transform="translate(-0.28 -0.19)"/><path class="cls-1" d="M111.15,48.75a5.24,5.24,0,0,0,6,.34,3.21,3.21,0,0,0,1.37-1.64H123a8.54,8.54,0,0,1-3.31,4.79,9.75,9.75,0,0,1-5.4,1.44,10.6,10.6,0,0,1-4-.7,8.22,8.22,0,0,1-3-2,9,9,0,0,1-1.89-3.09,11.34,11.34,0,0,1-.67-4,10.84,10.84,0,0,1,.68-3.89,9,9,0,0,1,4.95-5.18,9.63,9.63,0,0,1,3.87-.76,8.84,8.84,0,0,1,4.14.92,8.26,8.26,0,0,1,2.9,2.46A10.14,10.14,0,0,1,123,41a13.14,13.14,0,0,1,.36,4.14H109.9A5.16,5.16,0,0,0,111.15,48.75ZM116.93,39a3.59,3.59,0,0,0-2.79-1,4.45,4.45,0,0,0-2,.41,3.89,3.89,0,0,0-1.3,1,3.77,3.77,0,0,0-.68,1.3,5.83,5.83,0,0,0-.23,1.22h8.31A5.91,5.91,0,0,0,116.93,39Z" transform="translate(-0.28 -0.19)"/><path class="cls-1" d="M130.64,48.59a3,3,0,0,0,.88,1,3.78,3.78,0,0,0,1.24.56,5.83,5.83,0,0,0,1.46.18,5.46,5.46,0,0,0,1.13-.13,3.86,3.86,0,0,0,1.08-.4,2.47,2.47,0,0,0,.81-0.72,1.89,1.89,0,0,0,.32-1.13A1.91,1.91,0,0,0,136,46.19,30.55,30.55,0,0,0,131.78,45q-1.11-.25-2.18-0.59a7.39,7.39,0,0,1-1.89-.9,4.36,4.36,0,0,1-1.33-1.4,4,4,0,0,1-.5-2.07,5.6,5.6,0,0,1,.7-3,5.18,5.18,0,0,1,1.85-1.82,8.13,8.13,0,0,1,2.59-.94,15.91,15.91,0,0,1,3-.27,14.79,14.79,0,0,1,2.93.29,7.77,7.77,0,0,1,2.54,1,5.84,5.84,0,0,1,1.85,1.82,6.11,6.11,0,0,1,.88,2.86h-4.86a2.24,2.24,0,0,0-1.12-2,5.1,5.1,0,0,0-2.37-.52,8.77,8.77,0,0,0-.94.05,3.15,3.15,0,0,0-.92.23,1.9,1.9,0,0,0-.7.52,1.38,1.38,0,0,0-.29.92,1.4,1.4,0,0,0,.5,1.12,3.87,3.87,0,0,0,1.31.7,16.33,16.33,0,0,0,1.85.49L136.78,42a21.57,21.57,0,0,1,2.18.61,7.18,7.18,0,0,1,1.89,1,4.63,4.63,0,0,1,1.33,1.48,4.33,4.33,0,0,1,.5,2.18A5.65,5.65,0,0,1,140,52.31a7.89,7.89,0,0,1-2.72,1.06,15.9,15.9,0,0,1-3.11.31,15.35,15.35,0,0,1-3.17-.32,8.35,8.35,0,0,1-2.75-1.08,6.18,6.18,0,0,1-2-2,6.25,6.25,0,0,1-.85-3.11h4.86A2.8,2.8,0,0,0,130.64,48.59Z" transform="translate(-0.28 -0.19)"/><path class="cls-1" d="M23.64,6.29a6.36,6.36,0,0,0-.55-1.43,4,4,0,0,0-.9-1.12A4,4,0,0,0,20.9,3a5.11,5.11,0,0,0-1.71-.26,5,5,0,0,0-2.46.58A4.84,4.84,0,0,0,15,4.85a6.93,6.93,0,0,0-1,2.19,10.16,10.16,0,0,0,0,5,6.92,6.92,0,0,0,1,2.19,4.83,4.83,0,0,0,1.69,1.54,5,5,0,0,0,2.46.57A4.44,4.44,0,0,0,21,16a4.12,4.12,0,0,0,1.38-1,4.71,4.71,0,0,0,.9-1.49,7.13,7.13,0,0,0,.43-1.83h3.05a8.48,8.48,0,0,1-.69,2.93,7.17,7.17,0,0,1-1.59,2.29,7,7,0,0,1-2.35,1.49,8.14,8.14,0,0,1-3,.53,8.43,8.43,0,0,1-3.59-.74,7.88,7.88,0,0,1-2.69-2,9,9,0,0,1-1.69-3,11,11,0,0,1-.59-3.63,11,11,0,0,1,.59-3.6,9,9,0,0,1,1.69-3,8,8,0,0,1,2.69-2A8.29,8.29,0,0,1,19.19.19,9.46,9.46,0,0,1,22,.6a7.31,7.31,0,0,1,2.34,1.2A6.23,6.23,0,0,1,26,3.72a6.66,6.66,0,0,1,.78,2.58H23.64Z" transform="translate(-0.28 -0.19)"/><path class="cls-1" d="M29.31,0.62h2.85V18.47H29.31V0.62Z" transform="translate(-0.28 -0.19)"/><path class="cls-1" d="M37.49,12.74a5,5,0,0,0,.21,1.45,3.57,3.57,0,0,0,.64,1.23,3.06,3.06,0,0,0,1.08.84,3.54,3.54,0,0,0,1.55.31A3.42,3.42,0,0,0,43,16a3.17,3.17,0,0,0,1.14-1.61h2.7a5.36,5.36,0,0,1-2.1,3.26,5.71,5.71,0,0,1-1.74.85,7,7,0,0,1-2,.29,6.85,6.85,0,0,1-2.7-.5,5.58,5.58,0,0,1-2-1.4A5.93,5.93,0,0,1,35,14.77,8.74,8.74,0,0,1,34.64,12a7.79,7.79,0,0,1,.44-2.61,6.68,6.68,0,0,1,1.25-2.18,5.86,5.86,0,0,1,4.56-2,5.8,5.8,0,0,1,2.74.64,6,6,0,0,1,2,1.69A6.84,6.84,0,0,1,46.8,9.93,7.42,7.42,0,0,1,47,12.74h-9.5Zm6.65-1.88a4.61,4.61,0,0,0-.29-1.3,3.47,3.47,0,0,0-.65-1.09,3.23,3.23,0,0,0-1-.75,3,3,0,0,0-1.31-.29,3.42,3.42,0,0,0-1.36.26,3.11,3.11,0,0,0-1.05.73,3.59,3.59,0,0,0-.7,1.09,3.78,3.78,0,0,0-.29,1.35h6.65Z" transform="translate(-0.28 -0.19)"/><path class="cls-1" d="M60,15.59a1.51,1.51,0,0,0,.14.75,0.58,0.58,0,0,0,.54.23H61a1.85,1.85,0,0,0,.4,0v2L61,18.61l-0.49.11-0.5.08-0.43,0a2.75,2.75,0,0,1-1.45-.35,1.74,1.74,0,0,1-.75-1.23,5,5,0,0,1-2.09,1.2,8.22,8.22,0,0,1-2.39.38,5.86,5.86,0,0,1-1.68-.24,4.38,4.38,0,0,1-1.41-.7,3.35,3.35,0,0,1-1-1.18A3.62,3.62,0,0,1,48.46,15a3.84,3.84,0,0,1,.44-2,3.24,3.24,0,0,1,1.15-1.18,5.21,5.21,0,0,1,1.6-.61q0.89-.19,1.79-0.29a14.67,14.67,0,0,1,1.48-.21,6.86,6.86,0,0,0,1.24-.21A1.9,1.9,0,0,0,57,10.13a1.27,1.27,0,0,0,.31-0.94,1.46,1.46,0,0,0-.26-0.9,1.77,1.77,0,0,0-.65-0.54,2.82,2.82,0,0,0-.86-0.25,6.94,6.94,0,0,0-.9-0.06,3.58,3.58,0,0,0-2,.5,2,2,0,0,0-.87,1.55H48.94a4.29,4.29,0,0,1,.6-2.08,4.14,4.14,0,0,1,1.34-1.33,5.48,5.48,0,0,1,1.84-.7,10.94,10.94,0,0,1,2.1-.2,8.85,8.85,0,0,1,1.88.2A5.34,5.34,0,0,1,58.35,6a3.61,3.61,0,0,1,1.19,1.16A3.19,3.19,0,0,1,60,8.94v6.65ZM57.14,12a3.45,3.45,0,0,1-1.6.51q-1,.09-1.9.26a6.12,6.12,0,0,0-.87.21,2.63,2.63,0,0,0-.75.38,1.65,1.65,0,0,0-.51.63,2.14,2.14,0,0,0-.19.94,1.19,1.19,0,0,0,.27.8,2,2,0,0,0,.66.51,3.08,3.08,0,0,0,.85.26,5.3,5.3,0,0,0,.84.07,4.6,4.6,0,0,0,1-.12A3.4,3.4,0,0,0,56,16a2.73,2.73,0,0,0,.81-0.76,1.93,1.93,0,0,0,.33-1.14V12Z" transform="translate(-0.28 -0.19)"/><path class="cls-1" d="M63.06,5.54h2.68V8h0.05a2.88,2.88,0,0,1,.49-1,4.73,4.73,0,0,1,.88-0.91,4.4,4.4,0,0,1,1.14-.66,3.41,3.41,0,0,1,1.28-.25,6.21,6.21,0,0,1,.69,0l0.39,0V8L70,7.93a5.06,5.06,0,0,0-.61,0,3.28,3.28,0,0,0-1.36.29A3.13,3.13,0,0,0,66.94,9a4.16,4.16,0,0,0-.75,1.39,6,6,0,0,0-.27,1.9v6.15H63.06V5.54Z" transform="translate(-0.28 -0.19)"/><path class="cls-1" d="M77.19,0.62h3.25l4.48,14.13H85L89.54,0.62h3.17l-6.1,17.85H83.14Z" transform="translate(-0.28 -0.19)"/><path class="cls-1" d="M94.42,0.62h2.85v2.7H94.42V0.62Zm0,4.93h2.85V18.47H94.42V5.54Z" transform="translate(-0.28 -0.19)"/><path class="cls-1" d="M102.59,12.74a5,5,0,0,0,.21,1.45,3.57,3.57,0,0,0,.64,1.23,3.06,3.06,0,0,0,1.08.84,3.54,3.54,0,0,0,1.55.31,3.42,3.42,0,0,0,2-.54,3.18,3.18,0,0,0,1.14-1.61h2.7a5.36,5.36,0,0,1-2.1,3.26,5.71,5.71,0,0,1-1.74.85,7,7,0,0,1-2,.29,6.85,6.85,0,0,1-2.7-.5,5.58,5.58,0,0,1-2-1.4,5.93,5.93,0,0,1-1.22-2.15A8.73,8.73,0,0,1,99.74,12a7.77,7.77,0,0,1,.44-2.61,6.69,6.69,0,0,1,1.25-2.18,5.86,5.86,0,0,1,4.56-2,5.79,5.79,0,0,1,2.74.64,6,6,0,0,1,2,1.69,6.85,6.85,0,0,1,1.16,2.41,7.42,7.42,0,0,1,.19,2.81h-9.5Zm6.65-1.88a4.6,4.6,0,0,0-.29-1.3,3.48,3.48,0,0,0-.65-1.09,3.22,3.22,0,0,0-1-.75A3,3,0,0,0,106,7.44a3.43,3.43,0,0,0-1.36.26,3.12,3.12,0,0,0-1,.73,3.6,3.6,0,0,0-.7,1.09,3.8,3.8,0,0,0-.29,1.35h6.65Z" transform="translate(-0.28 -0.19)"/><path class="cls-1" d="M113.1,5.54h3l2.53,9.65h0l2.42-9.65H124l2.33,9.65h0L129,5.54h2.9l-4,12.93h-2.93l-2.4-9.6h0l-2.37,9.6h-3Z" transform="translate(-0.28 -0.19)"/></svg>