<svg id="Layer_1" data-name="Layer 1" xmlns="http://www.w3.org/2000/svg" width="64" height="64" viewBox="0 0 64 64"><defs><style>.cls-1{fill:#d4953f;}</style></defs><title>globe</title><path class="cls-1" d="M32,0A32,32,0,1,0,64,32,32,32,0,0,0,32,0Zm0,8a23.75,23.75,0,0,1,7.52,1.52c-1.68,1.6-3.6,3-3.28,4.48s5.52,1,5.52,4c0,2.16-3.36,2.8-1,5.28,2.8,2.8-5.12,7.84-5.28,11.52-0.24,6.64,6.72,7.76,12.24,7.76,3.36,0,4.24,1.6,4,3.52a24.07,24.07,0,0,1-19.76,10,22.94,22.94,0,0,1-8.48-1.76c1.76-3.52-2.24-10.48-6-12.72-1.84-1.84-5.76-1.12-8-2a23.49,23.49,0,0,1-1.52-6.72,1.42,1.42,0,0,1,1.28-.72c1.52,0,3.6,3,4.72,2.72C15.36,34.56,8,24.4,11.44,22.4c1.6-1,4.8,3.12,3.76-1.28-1-4.08,2.88-2.24,5.28-3.28,2.08-.88,3.6-3.28,1-4.72a8.55,8.55,0,0,1-1.76-1.52A23.75,23.75,0,0,1,32,8.08V8Zm18.48,8.72A26.46,26.46,0,0,1,54,22.48v0.24a11.78,11.78,0,0,1-1.76,1.76C50,26.72,49.68,22.8,48.72,22c-1-1-4.8.16-5.28-1C42.88,19.52,47.44,17.6,50.48,16.72Z"/></svg>