<svg id="Layer_1" data-name="Layer 1" xmlns="http://www.w3.org/2000/svg" width="64" height="64" viewBox="0 0 64 64"><defs><style>.cls-1{fill:#d4953f;}</style></defs><title>rain</title><path class="cls-1" d="M36,0A20.42,20.42,0,0,0,16,16,16,16,0,0,0,0,32,15.4,15.4,0,0,0,4.27,42.72,11.88,11.88,0,0,1,12,40a10.51,10.51,0,0,1,4.47,1A12,12,0,0,1,28,32a12.06,12.06,0,0,1,11.51,9A11.84,11.84,0,0,1,44,40a11.94,11.94,0,0,1,11,7.52A12.07,12.07,0,0,0,64,36c0-5.2-3.36-10.32-8-12V20a20,20,0,0,0-20-20H36ZM26.73,40A4,4,0,0,0,24,44V60a4,4,0,1,0,8,0h0V44a4,4,0,0,0-4.71-4H26.73Zm-16,8A4,4,0,0,0,8,52v8a4,4,0,1,0,8,0h0V52a4,4,0,0,0-4.71-4H10.75Zm32,0A4,4,0,0,0,40,52v8a4,4,0,1,0,8,0V52a4,4,0,0,0-4.71-4H42.71Z" transform="translate(-0.04)"/></svg>