<svg xmlns="http://www.w3.org/2000/svg" width="51.78" height="42.06" viewBox="0 0 51.78 42.06"><path fill="#FFF" d="M51.78,5a22.23,22.23,0,0,1-5.32,5.52v1.38a30.15,30.15,0,0,1-1.25,8.53,30.81,30.81,0,0,1-3.76,8.13,32.1,32.1,0,0,1-6.06,6.92,27,27,0,0,1-8.48,4.8,31,31,0,0,1-10.62,1.8A29.47,29.47,0,0,1,0,37.29a22.71,22.71,0,0,0,2.56.13,20.78,20.78,0,0,0,13.17-4.53,10.63,10.63,0,0,1-9.92-7.36,13.45,13.45,0,0,0,2,.16,11,11,0,0,0,2.79-.36,10.44,10.44,0,0,1-6.09-3.67A10.25,10.25,0,0,1,2.1,14.91V14.78a10.52,10.52,0,0,0,4.8,1.34,10.6,10.6,0,0,1-3.45-3.78A10.34,10.34,0,0,1,2.17,7.27,10.4,10.4,0,0,1,3.62,1.94a30.08,30.08,0,0,0,9.71,7.83A29.57,29.57,0,0,0,25.53,13a11.79,11.79,0,0,1-.26-2.43,10.23,10.23,0,0,1,3-7.48,10.64,10.64,0,0,1,15,0l0.21,0.22A20.81,20.81,0,0,0,50.33.8a10.3,10.3,0,0,1-4.67,5.85A21.14,21.14,0,0,0,51.78,5Z"/></svg>