<svg id="Layer_1" data-name="Layer 1" xmlns="http://www.w3.org/2000/svg" width="60" height="64" viewBox="0 0 60 64"><defs><style>.cls-1{fill:#d4953e;}</style></defs><title>wifi</title><path class="cls-1" d="M29.88,0A55.39,55.39,0,0,0,0,8.72L4.22,15.2A47.32,47.32,0,0,1,29.88,7.92a47.31,47.31,0,0,1,25.9,7.28L60,8.72A55.53,55.53,0,0,0,29.88,0Zm0,24a31.08,31.08,0,0,0-17,5l4.22,6.72A23.09,23.09,0,0,1,29.8,32a24.17,24.17,0,0,1,13,3.76L47,29A32.37,32.37,0,0,0,29.8,24h0.07Zm0,24a8,8,0,1,0,8,8A8,8,0,0,0,29.88,48Z" transform="translate(0 0)"/></svg>