<svg xmlns="http://www.w3.org/2000/svg" width="34.75" height="42" viewBox="0 0 34.75 42"><path fill="#FFF" d="M22.13,29.15v5q0,1.57-.91,1.57a1.5,1.5,0,0,1-1.06-.52V28.09a1.5,1.5,0,0,1,1.06-.54Q22.13,27.55,22.13,29.15Zm7.92,0v1.08H27.95V29.17q0-1.59,1.06-1.59t1,1.59v0ZM7.42,24H9.92V21.86H2.62v2.2H5.08V37.4H7.42V24ZM14.17,37.4h2.09V25.82H14.17v8.86a1.86,1.86,0,0,1-1.31,1,0.48,0.48,0,0,1-.49-0.47s0,0,0,0a6.52,6.52,0,0,1,0-.82V25.82H10.23V35a5.79,5.79,0,0,0,.19,1.71,1.26,1.26,0,0,0,1.36.87,3.43,3.43,0,0,0,2.39-1.43V37.4Zm10.05-3.47V29.33A8.33,8.33,0,0,0,24,27a1.63,1.63,0,0,0-1.67-1.31A2.82,2.82,0,0,0,20.16,27v-5.1H18.08V37.4h2.09V36.27a2.91,2.91,0,0,0,2.18,1.31A1.62,1.62,0,0,0,24,36.27,8.61,8.61,0,0,0,24.22,33.92Zm7.92-.24v-0.3H30a11.6,11.6,0,0,1,0,1.43,0.9,0.9,0,0,1-.94.85q-1.08,0-1.08-1.61V32h4.19V29.59a4.65,4.65,0,0,0-.66-2.72,3.2,3.2,0,0,0-5,0,4.52,4.52,0,0,0-.66,2.72v4.05a4.4,4.4,0,0,0,.66,2.72A3,3,0,0,0,29,37.56a2.9,2.9,0,0,0,3-2.51,10.31,10.31,0,0,0,.09-1.36h0ZM17.89,12.3V7.38q0-1.61-1-1.61t-1,1.61V12.3q0,1.64,1,1.64T17.89,12.3ZM34.74,29.9a40.6,40.6,0,0,1-.61,8.2,4.45,4.45,0,0,1-1.36,2.32,4.1,4.1,0,0,1-2.39,1.08,125.31,125.31,0,0,1-13,.49,125.31,125.31,0,0,1-13-.49A4.15,4.15,0,0,1,2,40.42,4.28,4.28,0,0,1,.63,38.1,39.76,39.76,0,0,1,0,29.9a40.6,40.6,0,0,1,.61-8.2A4.45,4.45,0,0,1,2,19.37a4.25,4.25,0,0,1,2.41-1.1q4.29-.47,13-0.47t13,0.47a4.4,4.4,0,0,1,3.75,3.42A39.76,39.76,0,0,1,34.74,29.9ZM11.35,0h2.39L10.91,9.35V15.7H8.57V9.35a39.68,39.68,0,0,0-1.43-5Q6.27,2,5.61,0H8.1L9.77,6.16ZM20,7.8v4.1a4.59,4.59,0,0,1-.66,2.76,2.88,2.88,0,0,1-2.49,1.19,2.9,2.9,0,0,1-2.46-1.19,4.68,4.68,0,0,1-.66-2.76V7.8a4.59,4.59,0,0,1,.66-2.74,2.9,2.9,0,0,1,2.46-1.19,2.88,2.88,0,0,1,2.49,1.19A4.59,4.59,0,0,1,20,7.8ZM27.87,4V15.7H25.74V14.43a3.37,3.37,0,0,1-2.41,1.45A1.31,1.31,0,0,1,22,15a6,6,0,0,1-.19-1.76V4h2.13V12.6a6.14,6.14,0,0,0,0,.82,0.49,0.49,0,0,0,.47.52h0a1.87,1.87,0,0,0,1.31-1V4h2.16Z"/></svg>